<svg version="1.1" viewBox="0.0 0.0 723.6089238845144 718.5669291338583" fill="none" stroke="none" stroke-linecap="square" stroke-miterlimit="10" xmlns:xlink="http://www.w3.org/1999/xlink" xmlns="http://www.w3.org/2000/svg"><clipPath id="p.0"><path d="m0 0l723.60895 0l0 718.56696l-723.60895 0l0 -718.56696z" clip-rule="nonzero"/></clipPath><g clip-path="url(#p.0)"><path fill="#000000" fill-opacity="0.0" d="m0 0l723.60895 0l0 718.56696l-723.60895 0z" fill-rule="evenodd"/><path fill="#0a0a0a" d="m-0.002624672 -0.007874016l723.6221 0l0 718.5827l-723.6221 0z" fill-rule="evenodd"/><path stroke="#000000" stroke-width="1.0" stroke-linejoin="round" stroke-linecap="butt" d="m-0.002624672 -0.007874016l723.6221 0l0 718.5827l-723.6221 0z" fill-rule="evenodd"/><path fill="#f9fbfd" d="m477.96194 149.58246l0 0c63.751923 63.751923 63.42758 167.43854 -0.72442627 231.59055q-66.47458 66.47461 -116.26218 149.6362q-49.26834 -82.851746 -115.32837 -148.9118l0 0c-63.751923 -63.751923 -63.427597 -167.43854 0.724411 -231.59053l0 0c64.15202 -64.15201 167.83864 -64.47634 231.59056 -0.724411z" fill-rule="evenodd"/><path fill="#0a0a0a" d="m334.92783 291.03674l0 243.4646l-38.393707 0l0 -243.4646z" fill-rule="evenodd"/><path fill="#0a0a0a" d="m425.2651 299.16797l0 229.44885l-38.393707 0l0 -229.44885z" fill-rule="evenodd"/><path fill="#7ba7d3" d="m454.68677 465.54855l0 55.09445l-92.88187 110.95282l-92.8819 -110.95282l0 -55.09445l92.8819 110.95279z" fill-rule="evenodd"/><path fill="#1a1a1a" d="m286.89764 230.94489l0 0c0 -12.489471 10.752197 -22.614182 24.015747 -22.614182l0 0c6.3693542 0 12.477875 2.3825684 16.98169 6.6235504c4.503845 4.240967 7.0340576 9.992981 7.0340576 15.990631l0 0c0 12.489456 -10.752228 22.614166 -24.015747 22.614166l0 0c-13.26355 0 -24.015747 -10.12471 -24.015747 -22.614166z" fill-rule="evenodd"/><path stroke="#000000" stroke-width="1.0" stroke-linejoin="round" stroke-linecap="butt" d="m286.89764 230.94489l0 0c0 -12.489471 10.752197 -22.614182 24.015747 -22.614182l0 0c6.3693542 0 12.477875 2.3825684 16.98169 6.6235504c4.503845 4.240967 7.0340576 9.992981 7.0340576 15.990631l0 0c0 12.489456 -10.752228 22.614166 -24.015747 22.614166l0 0c-13.26355 0 -24.015747 -10.12471 -24.015747 -22.614166z" fill-rule="evenodd"/><path fill="#1a1a1a" d="m382.0525 230.94489l0 0c0 -12.489471 10.752228 -22.614182 24.015747 -22.614182l0 0c6.369385 0 12.477875 2.3825684 16.98169 6.6235504c4.503845 4.240967 7.0340576 9.992981 7.0340576 15.990631l0 0c0 12.489456 -10.752197 22.614166 -24.015747 22.614166l0 0c-13.263519 0 -24.015747 -10.12471 -24.015747 -22.614166z" fill-rule="evenodd"/><path stroke="#000000" stroke-width="1.0" stroke-linejoin="round" stroke-linecap="butt" d="m382.0525 230.94489l0 0c0 -12.489471 10.752228 -22.614182 24.015747 -22.614182l0 0c6.369385 0 12.477875 2.3825684 16.98169 6.6235504c4.503845 4.240967 7.0340576 9.992981 7.0340576 15.990631l0 0c0 12.489456 -10.752197 22.614166 -24.015747 22.614166l0 0c-13.263519 0 -24.015747 -10.12471 -24.015747 -22.614166z" fill-rule="evenodd"/><path fill="#0a0a0a" d="m454.68765 256.80054l0 42.76715l-92.88187 48.760406l-92.8819 -48.760406l0 -42.76715l92.8819 48.760376z" fill-rule="evenodd"/></g></svg>