<svg version="1.1" viewBox="0.0 0.0 723.6089238845144 718.5669291338583" fill="none" stroke="none" stroke-linecap="square" stroke-miterlimit="10" xmlns:xlink="http://www.w3.org/1999/xlink" xmlns="http://www.w3.org/2000/svg"><clipPath id="p.0"><path d="m0 0l723.60895 0l0 718.56696l-723.60895 0l0 -718.56696z" clip-rule="nonzero"/></clipPath><g clip-path="url(#p.0)"><path fill="#000000" fill-opacity="0.0" d="m0 0l723.60895 0l0 718.56696l-723.60895 0z" fill-rule="evenodd"/><path fill="#1c1c21" d="m-0.022309711 -0.007874016l723.6221 0l0 718.5827l-723.6221 0z" fill-rule="evenodd"/><path stroke="#000000" stroke-width="1.0" stroke-linejoin="round" stroke-linecap="butt" d="m-0.022309711 -0.007874016l723.6221 0l0 718.5827l-723.6221 0z" fill-rule="evenodd"/><path fill="#d8d8f5" d="m459.86633 177.6852l0 0c53.81952 53.819504 53.544556 141.35313 -0.61416626 195.51183q-56.119476 56.119476 -98.151764 126.32617q-41.59204 -69.944 -97.36005 -125.712006l0 0c-53.81949 -53.81949 -53.54451 -141.35312 0.61416626 -195.51181l0 0c54.158722 -54.1587 141.69232 -54.43367 195.51181 -0.6141815z" fill-rule="evenodd"/><path fill="#1c1c21" d="m339.1075 297.10223l0 217.85828l-32.409424 0l0 -217.85828z" fill-rule="evenodd"/><path fill="#1c1c21" d="m415.3729 303.96698l0 214.07874l-32.409454 0l0 -214.07874z" fill-rule="evenodd"/><path fill="#b28fcf" d="m434.97107 447.8095l0 41.770233l-73.18109 84.11954l-73.18112 -84.11954l0 -41.770233l73.18112 84.11957z" fill-rule="evenodd"/><path fill="#1c1c21" d="m298.55734 246.3649l0 0c0 -10.5412445 9.074158 -19.086609 20.2677 -19.086609l0 0c5.3753357 0 10.530518 2.0108948 14.331451 5.590332c3.8009338 3.5794373 5.9362793 8.434189 5.9362793 13.496277l0 0c0 10.54126 -9.074158 19.086609 -20.26773 19.086609l0 0c-11.1935425 0 -20.2677 -8.545349 -20.2677 -19.086609z" fill-rule="evenodd"/><path fill="#1c1c21" d="m378.89102 246.3649l0 0c0 -10.5412445 9.074158 -19.086609 20.26773 -19.086609l0 0c5.3753357 0 10.530487 2.0108948 14.331421 5.590332c3.8009338 3.5794373 5.9362793 8.434189 5.9362793 13.496277l0 0c0 10.54126 -9.074158 19.086609 -20.2677 19.086609l0 0c-11.193573 0 -20.26773 -8.545349 -20.26773 -19.086609z" fill-rule="evenodd"/><path fill="#1c1c21" d="m440.21265 268.19858l0 36.100433l-78.409424 41.159393l-78.409454 -41.159393l0 -36.100433l78.409454 41.159393z" fill-rule="evenodd"/><path fill="#6d606d" d="m431.0367 518.0456l0 39.910095l-69.24411 80.37341l-69.24408 -80.37341l0 -39.910095l69.24408 80.37341z" fill-rule="evenodd"/></g></svg>